<svg xmlns="http://www.w3.org/2000/svg" viewBox="0 1.9783273330631346e-7 512 512"><g><path d="M391.5 241.836v-98.3c0-3.981-1.578-7.798-4.395-10.606L258.575 4.395A15.003 15.003 0 0 0 247.968 0H15C6.715 0 0 6.715 0 15v482c0 8.285 6.715 15 15 15h361.5c74.715 0 135.5-60.785 135.5-135.5 0-69.645-52.816-127.176-120.5-134.664zM262.969 51.215l77.316 77.316H262.97zM30 482V30h202.969v113.531c0 8.285 6.715 15 15 15H361.5v83.305C293.816 249.324 241 306.856 241 376.5c0 42.586 19.754 80.64 50.574 105.5zm346.5 0C318.328 482 271 434.672 271 376.5S318.328 271 376.5 271 482 318.328 482 376.5 434.672 482 376.5 482zm0 0" fill="#000000" opacity="1" data-original="#000000"></path><path d="M416.668 361.5H391.5v-25.168c0-8.281-6.715-15-15-15s-15 6.719-15 15V361.5h-25.164c-8.285 0-15 6.715-15 15s6.715 15 15 15H361.5v25.168c0 8.281 6.715 15 15 15s15-6.719 15-15V391.5h25.168c8.285 0 15-6.715 15-15s-6.715-15-15-15zm0 0" fill="#000000" opacity="1" data-original="#000000"></path></g></svg>